<?xml version="1.0" encoding="UTF-8" standalone="no"?>
<!-- Generator: Adobe Illustrator 19.0.0, SVG Export Plug-In . SVG Version: 6.00 Build 0)  -->

<svg
   version="1.1"
   id="Layer_1"
   x="0px"
   y="0px"
   viewBox="0 0 496 496"
   style="enable-background:new 0 0 496 496;"
   xml:space="preserve"
   sodipodi:docname="spinner.svg"
   inkscape:version="1.2.1 (9c6d41e410, 2022-07-14, custom)"
   xmlns:inkscape="http://www.inkscape.org/namespaces/inkscape"
   xmlns:sodipodi="http://sodipodi.sourceforge.net/DTD/sodipodi-0.dtd"
   xmlns="http://www.w3.org/2000/svg"
   xmlns:svg="http://www.w3.org/2000/svg"><defs
   id="defs59" /><sodipodi:namedview
   id="namedview57"
   pagecolor="#ffffff"
   bordercolor="#666666"
   borderopacity="1.0"
   inkscape:showpageshadow="2"
   inkscape:pageopacity="0.0"
   inkscape:pagecheckerboard="0"
   inkscape:deskcolor="#d1d1d1"
   showgrid="false"
   inkscape:zoom="1.7459677"
   inkscape:cx="288.66513"
   inkscape:cy="260.02772"
   inkscape:window-width="1857"
   inkscape:window-height="1011"
   inkscape:window-x="1983"
   inkscape:window-y="32"
   inkscape:window-maximized="1"
   inkscape:current-layer="Layer_1" />
<circle
   style="fill:#000000;fill-opacity:0.80273521"
   cx="248"
   cy="24"
   r="24"
   id="circle2" />
<circle
   style="fill:#000000;fill-opacity:0.20354225"
   cx="248"
   cy="472"
   r="24"
   id="circle4" />
<circle
   style="fill:#000000;fill-opacity:0.70116943"
   cx="136"
   cy="53.6"
   r="24"
   id="circle6" />
<path
   style="fill:#000000;fill-opacity:0.09671479"
   d="M380.8,430.4c6.4,11.2,2.4,25.6-8.8,32.8c-11.2,6.4-25.6,2.4-32.8-8.8c-6.4-11.2-2.4-25.6,8.8-32.8  C359.2,415.2,374.4,419.2,380.8,430.4z"
   id="path8" />
<path
   style="fill:#000000;fill-opacity:0.59535283"
   d="M65.6,115.2c11.2,6.4,15.2,20.8,8.8,32.8c-6.4,11.2-20.8,15.2-32.8,8.8c-11.2-6.4-15.2-20.8-8.8-32.8  S54.4,108.8,65.6,115.2z"
   id="path10" />

<circle
   style="fill:#000000;fill-opacity:0.50234181"
   cx="24"
   cy="248"
   r="24"
   id="circle14" />

<path
   style="fill:#000000;fill-opacity:0.40119326"
   d="M41.6,339.2c11.2-6.4,25.6-2.4,32.8,8.8c6.4,11.2,2.4,25.6-8.8,32.8c-11.2,6.4-25.6,2.4-32.8-8.8  S30.4,346.4,41.6,339.2z"
   id="path18" />
<path
   d="M430.4,115.2c11.2-6.4,25.6-2.4,32.8,8.8c6.4,11.2,2.4,25.6-8.8,32.8c-11.2,6.4-25.6,2.4-32.8-8.8  C415.2,136.8,419.2,121.6,430.4,115.2z"
   id="path20"
   style="image-rendering:auto;fill:#000000;fill-opacity:1"
   inkscape:label="path20" />
<path
   style="fill:#000000;fill-opacity:0.29566491"
   d="M115.2,430.4c6.4-11.2,20.8-15.2,32.8-8.8c11.2,6.4,15.2,20.8,8.8,32.8c-6.4,11.2-20.8,15.2-32.8,8.8  C112.8,456,108.8,441.6,115.2,430.4z"
   id="path22" />
<path
   style="fill:#000000;fill-opacity:0.89787412"
   d="M339.2,41.6c6.4-11.2,20.8-15.2,32.8-8.8c11.2,6.4,15.2,20.8,8.8,32.8c-6.4,11.2-20.8,15.2-32.8,8.8  C336.8,68,332.8,53.6,339.2,41.6z"
   id="path24" />
<g
   id="g26">
</g>
<g
   id="g28">
</g>
<g
   id="g30">
</g>
<g
   id="g32">
</g>
<g
   id="g34">
</g>
<g
   id="g36">
</g>
<g
   id="g38">
</g>
<g
   id="g40">
</g>
<g
   id="g42">
</g>
<g
   id="g44">
</g>
<g
   id="g46">
</g>
<g
   id="g48">
</g>
<g
   id="g50">
</g>
<g
   id="g52">
</g>
<g
   id="g54">
</g>
</svg>
